<svg xmlns="http://www.w3.org/2000/svg" width="12" height="13.091" viewBox="0 0 12 13.091">
  <defs>
    <style>
      .cls-1 {
        fill: #e15e64;
      }
    </style>
  </defs>
  <path id="trash-o" class="cls-1" d="M4.364,7.181V12.09a.269.269,0,0,1-.273.273H3.545a.269.269,0,0,1-.273-.273V7.181a.269.269,0,0,1,.273-.273h.545A.269.269,0,0,1,4.364,7.181Zm2.182,0V12.09a.269.269,0,0,1-.273.273H5.727a.269.269,0,0,1-.273-.273V7.181a.269.269,0,0,1,.273-.273h.545A.269.269,0,0,1,6.545,7.181Zm2.182,0V12.09a.269.269,0,0,1-.273.273H7.909a.269.269,0,0,1-.273-.273V7.181a.269.269,0,0,1,.273-.273h.545A.269.269,0,0,1,8.727,7.181Zm1.091,6.171V5.273H2.182v8.079A.759.759,0,0,0,2.455,14H9.545A.759.759,0,0,0,9.818,13.352ZM4.091,4.181H7.909l-.409-1a.327.327,0,0,0-.145-.094h-2.7a.287.287,0,0,0-.145.094ZM12,4.454V5a.269.269,0,0,1-.273.273h-.818v8.079A1.6,1.6,0,0,1,9.545,15.09H2.455a1.568,1.568,0,0,1-1.364-1.7V5.272H.273A.269.269,0,0,1,0,5V4.454a.269.269,0,0,1,.273-.273H2.906l.6-1.423A1.326,1.326,0,0,1,4.636,2H7.364A1.325,1.325,0,0,1,8.5,2.758l.6,1.423h2.633A.269.269,0,0,1,12,4.454Z" transform="translate(0 -1.999)"/>
</svg>
